<svg width="16" height="18" viewBox="0 0 16 18" fill="none" xmlns="http://www.w3.org/2000/svg">
<path d="M11.2 10.125C10.175 10.125 9.68214 10.6875 8 10.6875C6.31786 10.6875 5.82857 10.125 4.8 10.125C2.15 10.125 0 12.2414 0 14.85V16.3125C0 17.2441 0.767857 18 1.71429 18H14.2857C15.2321 18 16 17.2441 16 16.3125V14.85C16 12.2414 13.85 10.125 11.2 10.125ZM14.8571 16.3125C14.8571 16.6219 14.6 16.875 14.2857 16.875H1.71429C1.4 16.875 1.14286 16.6219 1.14286 16.3125V14.85C1.14286 12.8637 2.78214 11.25 4.8 11.25C5.5 11.25 6.19643 11.8125 8 11.8125C9.8 11.8125 10.5 11.25 11.2 11.25C13.2179 11.25 14.8571 12.8637 14.8571 14.85V16.3125ZM8 9C10.525 9 12.5714 6.98555 12.5714 4.5C12.5714 2.01445 10.525 0 8 0C5.475 0 3.42857 2.01445 3.42857 4.5C3.42857 6.98555 5.475 9 8 9ZM8 1.125C9.88929 1.125 11.4286 2.64023 11.4286 4.5C11.4286 6.35977 9.88929 7.875 8 7.875C6.11071 7.875 4.57143 6.35977 4.57143 4.5C4.57143 2.64023 6.11071 1.125 8 1.125Z" fill="black"/>
</svg>
