<svg width="20" height="20" viewBox="0 0 20 20" fill="none" xmlns="http://www.w3.org/2000/svg">
<path d="M19.567 3.94937C19.6975 3.4025 19.567 3 18.9391 3H16.8616C16.3326 3 16.0892 3.34562 15.9587 3.73062C15.9587 3.73062 14.9005 6.92875 13.405 9.0025C12.9218 9.60187 12.6996 9.79437 12.4351 9.79437C12.3046 9.79437 12.1035 9.60187 12.1035 9.055V3.94937C12.1035 3.29312 11.9554 3 11.518 3H8.25184C7.92029 3 7.72277 3.30625 7.72277 3.59062C7.72277 4.21187 8.47053 4.35625 8.54813 6.10625V9.90375C8.54813 10.735 8.4282 10.8881 8.16366 10.8881C7.45823 10.8881 5.74403 7.67688 4.72821 4.00188C4.52363 3.28875 4.32259 3 3.78998 3H1.71249C1.11992 3 1 3.34562 1 3.73062C1 4.41312 1.70543 7.80375 4.28379 12.2838C6.00151 15.3419 8.42115 17 10.6221 17C11.9448 17 12.107 16.6325 12.107 15.9981C12.107 13.0756 11.9871 12.8 12.6502 12.8C12.9571 12.8 13.4862 12.9925 14.7207 14.4669C16.1315 16.2169 16.3643 17 17.1544 17H19.2319C19.8245 17 20.1243 16.6325 19.9514 15.9062C19.5564 14.3794 16.8863 11.2381 16.7664 11.0281C16.4595 10.5381 16.5477 10.3194 16.7664 9.88188C16.7699 9.8775 19.306 5.45 19.567 3.94937Z" fill="black"/>
</svg>
